<svg id="Layer_1" data-name="Layer 1" xmlns="http://www.w3.org/2000/svg" viewBox="0 0 1500 1000"><defs><style>.cls-1{fill:#005aff;}.cls-1,.cls-10,.cls-2,.cls-3,.cls-4,.cls-5,.cls-6,.cls-7,.cls-8,.cls-9{stroke:#000;stroke-linejoin:round;stroke-width:6px;}.cls-1,.cls-10,.cls-3,.cls-5,.cls-6,.cls-7,.cls-8,.cls-9{stroke-linecap:round;}.cls-2{fill:#8c7156;}.cls-3{fill:none;}.cls-4{fill:#322d2b;}.cls-5{fill:#ff0a28;}.cls-6{fill:gray;}.cls-7{fill:#ccc;}.cls-8{fill:#fff;}.cls-9{fill:#ffd400;}</style></defs><rect class="cls-1" x="196.49" y="191.86" width="381.77" height="210.98"/><path class="cls-2" d="M337.86,317.34l-.35,40.93h54V314S338.38,316.79,337.86,317.34Z"/><path class="cls-2" d="M402.72,263.72a11.28,11.28,0,0,1,11.71-1.24c4.62,2.23,5.16,7.24,2.93,12.85,0,0,5.12,16-7.6,16-12.18,0-9.77-7.43-9.77-7.43"/><path class="cls-2" d="M326.9,263.72a11.28,11.28,0,0,0-11.71-1.24c-4.62,2.23-5.16,7.24-2.93,12.85,0,0-5.12,16,7.6,16,12.18,0,9.77-7.43,9.77-7.43"/><path class="cls-2" d="M406.19,262.37c-1.66-2.3-.67-5.34.91-12.9,1.13-5.43,1.66-9.35-.61-16.29-3.14-9.64-16.59-22.33-40.13-22.63-27.76-.36-41.42,17.88-42.92,26.33-1,5.66-.31,7.31.07,12.29.32,4.21,1.84,10.17.26,12-3.62,4.18-4.17,9.36-4.3,13.75-.36,11.93,7,21.53,7,21.53l1.26,14.28s.1,16.94,15.6,20.45c1.32,2.48,5,5.7,15.06,5.89l10.54.2c10.33.2,14-3,15.38-5.49,14.8-3.11,15.84-20.14,15.84-20.14l1.5-13.77s7-8.44,7.75-19.54C409.74,273.47,409.94,267.57,406.19,262.37Z"/><path class="cls-3" d="M361.42,276.63s-14.48,14.17-9.2,22c2.26,3.37,7.82,0,7.82,0s4.15,3.73,8.43.15c0,0,3.77,2.24,6.68-.47"/><path class="cls-3" d="M350,311.82a20.2,20.2,0,0,0,28.58.54"/><path class="cls-4" d="M323.77,261.17c1.58-1.83.06-7.79-.26-12-.38-5-1.09-6.63-.07-12.29,1.5-8.45,15.16-26.69,42.92-26.33,23.54.3,37,13,40.13,22.63,2.27,6.94,1.74,10.86.61,16.29l-1.66,9.21s-15.69-9.21-15.54-24l-48.21.3s-.75,10.31-4.07,15.84C334.56,255.93,323.77,261.17,323.77,261.17Z"/><path class="cls-3" d="M395.59,277.39a12.32,12.32,0,1,0-24.64,0"/><circle cx="383.47" cy="276.26" r="4.55"/><circle cx="345.11" cy="276.26" r="4.55"/><path class="cls-3" d="M357.37,277.59a12.32,12.32,0,0,0-24.64,0"/><path class="cls-3" d="M334.19,258.7a32.57,32.57,0,0,1,10.72-1.51,41.4,41.4,0,0,1,10.71,1.51"/><path class="cls-3" d="M372.06,258.7a32.57,32.57,0,0,1,10.72-1.51,41.4,41.4,0,0,1,10.71,1.51"/><path class="cls-5" d="M282.07,368.89l5.19-7.94a38.46,38.46,0,0,1,23.09-16.52c6.12-1.46,12.26-1.61,16.81,0l38.63,6.65,31.78-5.58c10.94-5.18,36.25-.08,45.62,10.08l6.7,19.62Z"/><path class="cls-2" d="M484.46,340.06l15.07-49.9a3.54,3.54,0,0,0-2.14-4.38,3.42,3.42,0,0,0-4.25,1.79l-5.8,15.17,5.5-21.88a3.74,3.74,0,0,0-2.9-4.19,3.83,3.83,0,0,0-4.74,1.84l-7.09,21.26,6.83-26.85c.37-1.46-1.07-3.62-2.71-4.08-2.62-.75-4.25.37-4.93,1.73l-9.08,26.11,5.54-23.08a3.87,3.87,0,0,0-2.88-4.4,4,4,0,0,0-4.76,2l-7.66,20.47L455.11,302l1.4-13.86c0-2.12-.87-4-3.11-4.62-2-.57-3.91.45-5.11,2.33,0,0-4.48,13.59-5.05,18.3-.74,6.21,1.51,25,1.51,25l-15,44.89,47.37,14Z"/><circle class="cls-6" cx="313.5" cy="647.62" r="90.5"/><circle class="cls-7" cx="313.5" cy="647.62" r="38.84"/><circle class="cls-6" cx="751.08" cy="647.62" r="90.5"/><circle class="cls-7" cx="751.08" cy="647.62" r="38.84"/><circle class="cls-6" cx="1193.13" cy="647.62" r="90.5"/><circle class="cls-7" cx="1193.13" cy="647.62" r="38.84"/><circle class="cls-6" cx="970.99" cy="647.62" r="90.5"/><circle class="cls-7" cx="970.99" cy="647.62" r="38.84"/><circle class="cls-6" cx="535.64" cy="647.62" r="90.5"/><circle class="cls-7" cx="535.64" cy="647.62" r="38.84"/><rect class="cls-6" x="1227.97" y="228.12" width="166.53" height="311" transform="translate(2622.46 767.23) rotate(180)"/><rect class="cls-6" x="1204" y="228.12" width="166.53" height="311" transform="translate(2574.53 767.23) rotate(180)"/><rect class="cls-6" x="108" y="228.12" width="124" height="311"/><rect class="cls-6" x="131.97" y="228.12" width="68.03" height="311"/><path class="cls-7" d="M1255.84,127.12H246.16A91.16,91.16,0,0,0,155,218.28V557a91.17,91.17,0,0,0,91.16,91.17H1255.84A91.17,91.17,0,0,0,1347,557V218.28A91.16,91.16,0,0,0,1255.84,127.12ZM516,367.12H240v-172H516Z"/><path class="cls-8" d="M155,419.12V557a91.17,91.17,0,0,0,91.16,91.17H1255.84A91.17,91.17,0,0,0,1347,557V419.12Z"/><rect class="cls-1" x="155" y="487.12" width="1192" height="53"/><rect class="cls-9" x="155" y="403.12" width="1192" height="53"/><rect class="cls-7" x="610" y="197.3" width="283" height="450.82"/><line class="cls-3" x1="752" y1="202.12" x2="752" y2="646.12"/><rect class="cls-1" x="634" y="232.12" width="92" height="172" rx="46"/><rect class="cls-1" x="777" y="232.12" width="92" height="172" rx="46"/><rect class="cls-1" x="985" y="195.12" width="276" height="172"/><rect class="cls-9" x="105" y="824.95" width="1295" height="57"/><circle class="cls-10" cx="125" cy="842.95" r="4"/><circle class="cls-10" cx="125" cy="863.95" r="4"/><circle class="cls-10" cx="148" cy="842.95" r="4"/><circle class="cls-10" cx="148" cy="863.95" r="4"/><circle class="cls-10" cx="170" cy="842.95" r="4"/><circle class="cls-10" cx="170" cy="863.95" r="4"/><circle class="cls-10" cx="193" cy="842.95" r="4"/><circle class="cls-10" cx="193" cy="863.95" r="4"/><circle class="cls-10" cx="216" cy="842.95" r="4"/><circle class="cls-10" cx="216" cy="863.95" r="4"/><circle class="cls-10" cx="239" cy="842.95" r="4"/><circle class="cls-10" cx="239" cy="863.95" r="4"/><circle class="cls-10" cx="261" cy="842.95" r="4"/><circle class="cls-10" cx="261" cy="863.95" r="4"/><circle class="cls-10" cx="284" cy="842.95" r="4"/><circle class="cls-10" cx="284" cy="863.95" r="4"/><circle class="cls-10" cx="308" cy="842.95" r="4"/><circle class="cls-10" cx="308" cy="863.95" r="4"/><circle class="cls-10" cx="331" cy="842.95" r="4"/><circle class="cls-10" cx="331" cy="863.95" r="4"/><circle class="cls-10" cx="353" cy="842.95" r="4"/><circle class="cls-10" cx="353" cy="863.95" r="4"/><circle class="cls-10" cx="376" cy="842.95" r="4"/><circle class="cls-10" cx="376" cy="863.95" r="4"/><circle class="cls-10" cx="399" cy="842.95" r="4"/><circle class="cls-10" cx="399" cy="863.95" r="4"/><circle class="cls-10" cx="422" cy="842.95" r="4"/><circle class="cls-10" cx="422" cy="863.95" r="4"/><circle class="cls-10" cx="444" cy="842.95" r="4"/><circle class="cls-10" cx="444" cy="863.95" r="4"/><circle class="cls-10" cx="467" cy="842.95" r="4"/><circle class="cls-10" cx="467" cy="863.95" r="4"/><circle class="cls-10" cx="491" cy="842.95" r="4"/><circle class="cls-10" cx="491" cy="863.95" r="4"/><circle class="cls-10" cx="514" cy="842.95" r="4"/><circle class="cls-10" cx="514" cy="863.95" r="4"/><circle class="cls-10" cx="536" cy="842.95" r="4"/><circle class="cls-10" cx="536" cy="863.95" r="4"/><circle class="cls-10" cx="559" cy="842.95" r="4"/><circle class="cls-10" cx="559" cy="863.95" r="4"/><circle class="cls-10" cx="582" cy="842.95" r="4"/><circle class="cls-10" cx="582" cy="863.95" r="4"/><circle class="cls-10" cx="605" cy="842.95" r="4"/><circle class="cls-10" cx="605" cy="863.95" r="4"/><circle class="cls-10" cx="627" cy="842.95" r="4"/><circle class="cls-10" cx="627" cy="863.95" r="4"/><circle class="cls-10" cx="650" cy="842.95" r="4"/><circle class="cls-10" cx="650" cy="863.95" r="4"/><circle class="cls-10" cx="674" cy="842.95" r="4"/><circle class="cls-10" cx="674" cy="863.95" r="4"/><circle class="cls-10" cx="697" cy="842.95" r="4"/><circle class="cls-10" cx="697" cy="863.95" r="4"/><circle class="cls-10" cx="719" cy="842.95" r="4"/><circle class="cls-10" cx="719" cy="863.95" r="4"/><circle class="cls-10" cx="742" cy="842.95" r="4"/><circle class="cls-10" cx="742" cy="863.95" r="4"/><circle class="cls-10" cx="765" cy="842.95" r="4"/><circle class="cls-10" cx="765" cy="863.95" r="4"/><circle class="cls-10" cx="788" cy="842.95" r="4"/><circle class="cls-10" cx="788" cy="863.95" r="4"/><circle class="cls-10" cx="810" cy="842.95" r="4"/><circle class="cls-10" cx="810" cy="863.95" r="4"/><circle class="cls-10" cx="833" cy="842.95" r="4"/><circle class="cls-10" cx="833" cy="863.95" r="4"/><circle class="cls-10" cx="857" cy="842.95" r="4"/><circle class="cls-10" cx="857" cy="863.95" r="4"/><circle class="cls-10" cx="880" cy="842.95" r="4"/><circle class="cls-10" cx="880" cy="863.95" r="4"/><circle class="cls-10" cx="902" cy="842.95" r="4"/><circle class="cls-10" cx="902" cy="863.95" r="4"/><circle class="cls-10" cx="925" cy="842.95" r="4"/><circle class="cls-10" cx="925" cy="863.95" r="4"/><circle class="cls-10" cx="948" cy="842.95" r="4"/><circle class="cls-10" cx="948" cy="863.95" r="4"/><circle class="cls-10" cx="971" cy="842.95" r="4"/><circle class="cls-10" cx="971" cy="863.95" r="4"/><circle class="cls-10" cx="993" cy="842.95" r="4"/><circle class="cls-10" cx="993" cy="863.95" r="4"/><circle class="cls-10" cx="1016" cy="842.95" r="4"/><circle class="cls-10" cx="1016" cy="863.95" r="4"/><circle class="cls-10" cx="1040" cy="842.95" r="4"/><circle class="cls-10" cx="1040" cy="863.95" r="4"/><circle class="cls-10" cx="1063" cy="842.95" r="4"/><circle class="cls-10" cx="1063" cy="863.95" r="4"/><circle class="cls-10" cx="1085" cy="842.95" r="4"/><circle class="cls-10" cx="1085" cy="863.95" r="4"/><circle class="cls-10" cx="1108" cy="842.95" r="4"/><circle class="cls-10" cx="1108" cy="863.95" r="4"/><circle class="cls-10" cx="1131" cy="842.95" r="4"/><circle class="cls-10" cx="1131" cy="863.95" r="4"/><circle class="cls-10" cx="1154" cy="842.95" r="4"/><circle class="cls-10" cx="1154" cy="863.95" r="4"/><circle class="cls-10" cx="1176" cy="842.95" r="4"/><circle class="cls-10" cx="1176" cy="863.95" r="4"/><circle class="cls-10" cx="1199" cy="842.95" r="4"/><circle class="cls-10" cx="1199" cy="863.95" r="4"/><circle class="cls-10" cx="1222" cy="842.95" r="4"/><circle class="cls-10" cx="1222" cy="863.95" r="4"/><circle class="cls-10" cx="1245" cy="842.95" r="4"/><circle class="cls-10" cx="1245" cy="863.95" r="4"/><circle class="cls-10" cx="1267" cy="842.95" r="4"/><circle class="cls-10" cx="1267" cy="863.95" r="4"/><circle class="cls-10" cx="1290" cy="842.95" r="4"/><circle class="cls-10" cx="1290" cy="863.95" r="4"/><circle class="cls-10" cx="1313" cy="842.95" r="4"/><circle class="cls-10" cx="1313" cy="863.95" r="4"/><circle class="cls-10" cx="1336" cy="842.95" r="4"/><circle class="cls-10" cx="1336" cy="863.95" r="4"/><circle class="cls-10" cx="1358" cy="842.95" r="4"/><circle class="cls-10" cx="1358" cy="863.95" r="4"/><circle class="cls-10" cx="1381" cy="842.95" r="4"/><circle class="cls-10" cx="1381" cy="863.95" r="4"/><rect class="cls-7" x="106.07" y="757.81" width="1295.18" height="38.51"/></svg>